<?xml version="1.0" standalone="no"?>
<!DOCTYPE svg PUBLIC "-//W3C//DTD SVG 20010904//EN"
 "http://www.w3.org/TR/2001/REC-SVG-20010904/DTD/svg10.dtd">
<svg version="1.0" xmlns="http://www.w3.org/2000/svg"
 width="608.000000pt" height="608.000000pt" viewBox="0 0 608.000000 608.000000"
 preserveAspectRatio="xMidYMid meet">
<metadata>
Created by potrace 1.14, written by Peter Selinger 2001-2017
</metadata>
<g transform="translate(0.000000,608.000000) scale(0.100000,-0.100000)"
fill="#000000" stroke="none">
<path d="M2775 6060 c-1087 -110 -2007 -751 -2469 -1720 -142 -298 -236 -625
-278 -960 -17 -137 -17 -553 0 -690 29 -237 94 -499 179 -730 48 -131 188
-414 268 -540 445 -705 1160 -1198 1975 -1360 225 -45 334 -55 595 -55 261 0
370 10 595 55 815 162 1530 655 1975 1360 80 126 220 409 268 540 85 231 150
493 179 730 17 137 17 553 0 690 -115 926 -624 1734 -1402 2225 -126 80 -409
220 -540 268 -223 83 -452 140 -681 172 -135 19 -534 28 -664 15z m-390 -1312
c427 -78 806 -340 1038 -716 221 -358 285 -801 176 -1217 -31 -118 -99 -278
-161 -378 l-30 -47 164 -168 c429 -438 467 -479 473 -505 4 -15 2 -40 -4 -55
-16 -38 -361 -380 -386 -382 -68 -7 -65 -9 -393 321 l-319 320 -64 -36 c-269
-151 -492 -210 -784 -209 -157 1 -261 14 -395 49 -167 43 -398 158 -530 264
-24 20 -56 45 -70 56 -41 32 -163 157 -195 200 -16 22 -33 42 -36 45 -19 16
-97 144 -148 241 -93 181 -145 367 -159 565 -21 287 27 544 148 799 62 131
137 243 235 354 77 88 99 109 216 206 94 79 311 192 467 244 235 79 500 96
757 49z m2235 -258 c5 -8 10 -27 10 -42 0 -16 4 -28 9 -28 10 0 34 -60 27 -67
-2 -3 9 -35 24 -73 16 -39 26 -79 23 -92 -3 -16 -2 -19 4 -10 7 9 15 -6 28
-50 10 -35 23 -68 27 -75 5 -6 8 -20 7 -30 -2 -10 5 -33 15 -51 9 -19 15 -40
12 -48 -3 -8 -2 -13 3 -9 13 7 24 -49 16 -77 -4 -16 -4 -19 3 -9 8 11 12 10
20 -5 5 -11 13 -35 17 -54 4 -19 11 -39 15 -45 4 -5 15 -35 25 -65 9 -30 23
-70 31 -87 7 -18 11 -40 7 -49 -5 -13 -3 -15 7 -9 10 6 12 3 8 -13 -4 -14 -2
-20 4 -16 7 5 9 -4 6 -24 -3 -22 -1 -29 9 -25 10 4 12 -3 8 -28 -3 -19 -2 -28
1 -20 6 13 74 -158 74 -187 0 -7 9 -31 19 -55 37 -83 108 -303 110 -344 1 -6
7 -18 14 -25 7 -7 18 -31 25 -53 11 -40 110 -326 131 -379 6 -16 9 -38 5 -49
-4 -12 -2 -17 4 -13 11 7 25 -21 16 -35 -3 -5 -10 -6 -16 -3 -7 4 -8 2 -4 -4
4 -6 12 -9 19 -6 15 5 72 -159 63 -182 -3 -9 -1 -12 4 -9 6 3 10 5 10 3 0 -2
11 -34 25 -72 14 -37 22 -72 19 -77 -3 -5 1 -9 8 -9 9 0 9 -3 -2 -10 -9 -6
-116 -10 -251 -10 -216 0 -238 2 -257 19 -12 10 -22 30 -22 45 0 14 -5 26 -11
26 -5 0 -9 8 -8 18 2 9 -3 27 -9 40 -7 12 -10 27 -7 32 3 6 2 10 -2 10 -12 0
-35 89 -27 102 4 6 2 8 -3 5 -9 -6 -48 106 -48 138 0 6 -3 12 -7 15 -4 3 -16
33 -26 65 l-18 60 -454 3 c-250 1 -465 0 -477 -3 -14 -3 -20 -11 -17 -19 3 -7
-2 -16 -10 -19 -9 -4 -16 -12 -16 -19 0 -9 3 -9 11 2 9 12 10 12 5 -3 -3 -10
-6 -23 -6 -28 0 -6 -5 -7 -12 -3 -8 5 -9 2 -5 -11 7 -17 -3 -60 -29 -120 -7
-17 -21 -60 -31 -97 l-18 -66 -24 19 c-19 16 -21 22 -11 34 8 9 8 15 2 15 -6
0 -12 -5 -14 -10 -2 -6 -20 5 -41 25 -21 20 -35 40 -32 46 4 5 1 8 -7 7 -7 -2
-12 3 -10 10 1 6 -1 11 -6 10 -15 -5 -64 41 -56 53 4 8 3 9 -5 5 -7 -5 -28 11
-54 39 -61 69 -61 69 -27 116 16 23 30 48 30 55 0 7 3 14 8 16 11 5 42 64 42
82 0 9 4 16 9 16 5 0 11 10 14 23 3 12 15 54 26 92 12 39 23 77 25 86 2 8 11
44 20 80 23 92 33 185 35 334 2 137 7 175 23 175 5 0 7 4 3 9 -3 5 1 27 9 48
8 21 17 47 22 58 4 11 8 25 9 30 0 6 6 22 12 36 6 14 17 44 24 67 6 23 16 39
22 35 6 -4 7 4 3 21 -4 16 -3 25 2 22 6 -3 9 0 9 7 -1 6 7 38 17 70 13 42 22
57 32 53 12 -4 12 -2 4 15 -7 13 -8 25 -2 32 5 7 15 36 23 64 7 29 15 50 18
48 3 -3 11 16 18 42 14 50 17 59 25 83 3 8 14 41 23 74 13 42 20 54 27 45 6
-10 7 -7 3 9 -4 13 -1 29 6 38 6 8 9 17 6 20 -3 4 3 25 15 48 12 22 23 57 24
76 6 67 13 69 299 67 215 -2 257 -4 265 -17z"/>
<path d="M1935 4325 c-119 -19 -193 -41 -289 -84 -226 -104 -405 -271 -524
-488 -31 -56 -59 -130 -110 -293 -20 -63 -22 -358 -4 -445 19 -88 61 -212 93
-277 16 -32 29 -65 29 -74 0 -10 3 -14 7 -11 4 4 19 -13 33 -38 34 -58 149
-188 218 -245 250 -210 577 -299 903 -244 278 46 528 198 698 423 95 126 138
213 188 381 31 105 43 339 24 470 -41 276 -201 545 -428 716 -234 177 -549
255 -838 209z"/>
<path d="M4711 4074 c0 -11 3 -14 6 -6 3 7 2 16 -1 19 -3 4 -6 -2 -5 -13z"/>
<path d="M4736 4077 c3 -10 9 -15 12 -12 3 3 0 11 -7 18 -10 9 -11 8 -5 -6z"/>
<path d="M4331 3891 c-7 -5 -11 -13 -8 -18 3 -5 -19 -81 -48 -168 -30 -88 -54
-168 -55 -178 0 -10 -4 -16 -9 -13 -5 4 -7 -3 -4 -14 3 -11 1 -20 -5 -20 -6 0
-13 -19 -17 -42 -8 -51 -76 -261 -86 -268 -4 -3 -10 -25 -14 -49 -3 -24 -17
-73 -30 -110 -13 -36 -26 -81 -30 -99 -4 -18 -13 -39 -22 -47 -13 -13 -12 -15
4 -15 10 0 155 0 323 -1 370 -1 378 -1 363 9 -6 4 -37 88 -68 187 -32 99 -63
196 -70 215 -7 19 -21 64 -30 100 -10 36 -22 79 -28 95 -7 17 -10 36 -9 43 2
6 -2 12 -8 12 -5 0 -9 3 -8 8 2 9 -19 82 -42 147 -10 28 -29 86 -41 130 -24
88 -37 109 -58 96z"/>
<path d="M5196 2722 c-3 -5 1 -9 9 -9 8 0 12 4 9 9 -3 4 -7 8 -9 8 -2 0 -6 -4
-9 -8z"/>
</g>
</svg>
